<svg xmlns="http://www.w3.org/2000/svg" viewBox="0 0 48 48" width="48" height="48">
  <!-- AWS text -->
  <g fill="#232F3E">
    <!-- A -->
    <path d="M6 32 L10 16 L14 16 L18 32 L15 32 L14 28 L10 28 L9 32 Z M10.5 25.5 L13.5 25.5 L12 19 Z"/>
    <!-- W -->
    <path d="M19 16 L22 28 L25 20 L28 28 L31 16 L34 16 L29 32 L26 32 L24 24 L22 32 L19 32 L14.5 16 Z"/>
    <!-- S -->
    <path d="M35 27 C35 30 37 32 40 32 C43 32 44.5 30.5 44.5 28.5 C44.5 26 43 25 40.5 24 C38 23 36 22 36 19.5 C36 17 38 15.5 40.5 15.5 C42.5 15.5 44 17 44.5 19 L42 19.5 C41.5 18 41 17.5 40 17.5 C38.5 17.5 38 18.5 38 19.5 C38 21 39 21.5 41 22.5 C43.5 23.5 46.5 24.5 46.5 28.5 C46.5 31.5 44.5 34 40 34 C36.5 34 34 31.5 33.5 28 Z"/>
  </g>
  <!-- Orange smile/arrow -->
  <path d="M6 36 Q24 42 42 36" fill="none" stroke="#FF9900" stroke-width="2.5" stroke-linecap="round"/>
  <path d="M38 34 L42 36 L38 38" fill="none" stroke="#FF9900" stroke-width="2.5" stroke-linecap="round" stroke-linejoin="round"/>
</svg>