<svg xmlns="http://www.w3.org/2000/svg" viewBox="0 0 48 48" width="48" height="48">
  <!-- Flask/Erlenmeyer shape -->
  <path d="M19 4 L19 16 L6 40 C5 42 6.5 44 9 44 L39 44 C41.5 44 43 42 42 40 L29 16 L29 4 Z" fill="none" stroke="#000" stroke-width="2.5" stroke-linejoin="round"/>
  <!-- Flask top rim -->
  <line x1="16" y1="4" x2="32" y2="4" stroke="#000" stroke-width="2.5" stroke-linecap="round"/>
  <!-- Liquid level -->
  <path d="M11 34 Q17 30 24 34 Q31 38 37 34 L39 38 C40.5 41 39 43 37 43 L11 43 C9 43 7.5 41 9 38 Z" fill="#000" opacity="0.2"/>
  <!-- Bubbles -->
  <circle cx="20" cy="32" r="1.5" fill="none" stroke="#000" stroke-width="1"/>
  <circle cx="28" cy="35" r="1" fill="none" stroke="#000" stroke-width="1"/>
</svg>