<svg xmlns="http://www.w3.org/2000/svg" viewBox="0 0 48 48" width="48" height="48">
  <!-- Elephant head -->
  <path d="M24 4 C14 4 8 10 8 20 C8 26 10 30 14 34 L12 42 C12 43.5 13 44 14.5 43 L18 40 C20 41 22 41.5 24 41.5 C26 41.5 28 41 30 40 L33.5 43 C35 44 36 43.5 36 42 L34 34 C38 30 40 26 40 20 C40 10 34 4 24 4 Z" fill="#336791"/>
  <!-- Trunk -->
  <path d="M22 28 Q20 34 18 36 Q17 37 18 37 L21 35 Q22 33 23 30" fill="#336791" stroke="#fff" stroke-width="0.5"/>
  <!-- Eye -->
  <circle cx="18" cy="18" r="4" fill="#fff"/>
  <circle cx="19" cy="17.5" r="2" fill="#336791"/>
  <circle cx="19.5" cy="17" r="0.8" fill="#fff"/>
  <!-- Ear -->
  <path d="M32 10 C36 8 39 12 37 16 C36 18 34 18 33 17" fill="#2A567A" stroke="#fff" stroke-width="0.5"/>
  <!-- Tusk -->
  <path d="M16 26 Q14 30 15 32 Q16 33 17 31 Q18 29 17 26" fill="#fff" opacity="0.9"/>
</svg>