<svg xmlns="http://www.w3.org/2000/svg" viewBox="0 0 48 48" width="48" height="48">
  <!-- Blue square with rounded corners -->
  <rect x="2" y="2" width="44" height="44" rx="4" fill="#3178C6"/>
  <!-- T letter -->
  <path d="M13 20 L27 20 L27 23.5 L22 23.5 L22 38 L18 38 L18 23.5 L13 23.5 Z" fill="#fff"/>
  <!-- S letter -->
  <path d="M29.5 33.5 C29.5 35.5 31 37 33.5 37 C36 37 37 35.8 37 34.5 C37 32.8 35.5 32 33.2 31.2 C30 30 28.5 28.5 28.5 26 C28.5 23 31 21 33.8 21 C36.5 21 38.5 22.5 39 25 L36 25.5 C35.8 24 35 23.2 33.5 23.2 C32 23.2 31.2 24 31.2 25.3 C31.2 26.8 32.2 27.3 34.2 28 C37 29 39.5 30 39.5 33.5 C39.5 36.8 37.5 39 33.5 39 C29.5 39 27.5 37 27 34 Z" fill="#fff"/>
</svg>